{
    "asset" : {
        "generator" : "Khronos glTF Blender I/O v1.3.48",
        "version" : "2.0"
    },
    "scene" : 0,
    "scenes" : [
        {
            "name" : "Scene",
            "nodes" : [
                0,
                1,
                5
            ]
        }
    ],
    "nodes" : [
        {
            "name" : "Light",
            "rotation" : [
                0.16907575726509094,
                0.7558803558349609,
                -0.27217137813568115,
                0.570947527885437
            ],
            "translation" : [
                4.076245307922363,
                5.903861999511719,
                -1.0054539442062378
            ]
        },
        {
            "name" : "Camera",
            "rotation" : [
                0.483536034822464,
                0.33687159419059753,
                -0.20870360732078552,
                0.7804827094078064
            ],
            "translation" : [
                7.358891487121582,
                4.958309173583984,
                6.925790786743164
            ]
        },
        {
            "mesh" : 0,
            "name" : "Cube",
            "rotation" : [
                0.7062525153160095,
                0,
                0,
                0.7079600095748901
            ],
            "translation" : [
                -4.912362575531006,
                0.27455830574035645,
                -0.020069360733032227
            ]
        },
        {
            "mesh" : 1,
            "name" : "Cube.001",
            "rotation" : [
                0.7062525153160095,
                0,
                0,
                0.7079600095748901
            ],
            "translation" : [
                4.757944107055664,
                0.27455830574035645,
                -0.020069360733032227
            ]
        },
        {
            "mesh" : 2,
            "name" : "Text",
            "rotation" : [
                0.7071068286895752,
                0,
                0,
                0.7071068286895752
            ],
            "translation" : [
                -3.2397003173828125,
                -0.08123254776000977,
                -0.020069360733032227
            ]
        },
        {
            "children" : [
                2,
                3,
                4
            ],
            "name" : "Empty",
            "translation" : [
                3.2397003173828125,
                0.08123254776000977,
                0.020069360733032227
            ]
        }
    ],
    "animations" : [
        {
            "channels" : [
                {
                    "sampler" : 0,
                    "target" : {
                        "node" : 2,
                        "path" : "rotation"
                    }
                }
            ],
            "name" : "CubeAction",
            "samplers" : [
                {
                    "input" : 11,
                    "interpolation" : "LINEAR",
                    "output" : 12
                }
            ]
        },
        {
            "channels" : [
                {
                    "sampler" : 0,
                    "target" : {
                        "node" : 3,
                        "path" : "rotation"
                    }
                }
            ],
            "name" : "Cube.001Action",
            "samplers" : [
                {
                    "input" : 11,
                    "interpolation" : "LINEAR",
                    "output" : 13
                }
            ]
        },
        {
            "channels" : [
                {
                    "sampler" : 0,
                    "target" : {
                        "node" : 5,
                        "path" : "rotation"
                    }
                }
            ],
            "name" : "EmptyAction",
            "samplers" : [
                {
                    "input" : 11,
                    "interpolation" : "LINEAR",
                    "output" : 14
                }
            ]
        }
    ],
    "materials" : [
        {
            "doubleSided" : true,
            "emissiveFactor" : [
                0.04696126654744148,
                0.0012100685853511095,
                0.0021566147916018963
            ],
            "name" : "red",
            "pbrMetallicRoughness" : {
                "baseColorFactor" : [
                    1,
                    0,
                    0,
                    1
                ],
                "metallicFactor" : 0,
                "roughnessFactor" : 0.5
            }
        },
        {
            "doubleSided" : true,
            "emissiveFactor" : [
                0.04696126654744148,
                0.0012100685853511095,
                0.0021566147916018963
            ],
            "name" : "red.001",
            "pbrMetallicRoughness" : {
                "baseColorFactor" : [
                    1,
                    0,
                    0,
                    1
                ],
                "metallicFactor" : 0,
                "roughnessFactor" : 0.5
            }
        },
        {
            "doubleSided" : true,
            "emissiveFactor" : [
                0.4019691050052643,
                0.37225282192230225,
                0.005687621887773275
            ],
            "name" : "Material.001",
            "pbrMetallicRoughness" : {
                "baseColorFactor" : [
                    0.8000000715255737,
                    0.7618905901908875,
                    0.006108928006142378,
                    1
                ],
                "metallicFactor" : 0,
                "roughnessFactor" : 0.5
            }
        }
    ],
    "meshes" : [
        {
            "name" : "Cube.001",
            "primitives" : [
                {
                    "attributes" : {
                        "POSITION" : 0,
                        "NORMAL" : 1,
                        "TEXCOORD_0" : 2
                    },
                    "indices" : 3,
                    "material" : 0
                }
            ]
        },
        {
            "name" : "Cube.002",
            "primitives" : [
                {
                    "attributes" : {
                        "POSITION" : 4,
                        "NORMAL" : 5,
                        "TEXCOORD_0" : 6
                    },
                    "indices" : 3,
                    "material" : 1
                }
            ]
        },
        {
            "name" : "Text",
            "primitives" : [
                {
                    "attributes" : {
                        "POSITION" : 7,
                        "NORMAL" : 8,
                        "TEXCOORD_0" : 9
                    },
                    "indices" : 10,
                    "material" : 2
                }
            ]
        }
    ],
    "accessors" : [
        {
            "bufferView" : 0,
            "componentType" : 5126,
            "count" : 484,
            "max" : [
                1.193189024925232,
                0.4096318781375885,
                1.573340892791748
            ],
            "min" : [
                -1.193189024925232,
                -0.4033557176589966,
                -0.5422239899635315
            ],
            "type" : "VEC3"
        },
        {
            "bufferView" : 1,
            "componentType" : 5126,
            "count" : 484,
            "type" : "VEC3"
        },
        {
            "bufferView" : 2,
            "componentType" : 5126,
            "count" : 484,
            "type" : "VEC2"
        },
        {
            "bufferView" : 3,
            "componentType" : 5123,
            "count" : 2304,
            "type" : "SCALAR"
        },
        {
            "bufferView" : 4,
            "componentType" : 5126,
            "count" : 484,
            "max" : [
                1.193189024925232,
                0.4096318781375885,
                1.573340892791748
            ],
            "min" : [
                -1.193189024925232,
                -0.4033557176589966,
                -0.5422239899635315
            ],
            "type" : "VEC3"
        },
        {
            "bufferView" : 5,
            "componentType" : 5126,
            "count" : 484,
            "type" : "VEC3"
        },
        {
            "bufferView" : 6,
            "componentType" : 5126,
            "count" : 484,
            "type" : "VEC2"
        },
        {
            "bufferView" : 7,
            "componentType" : 5126,
            "count" : 12531,
            "max" : [
                6.321000099182129,
                0.18000000715255737,
                1.2300000190734863
            ],
            "min" : [
                0,
                -0.18000000715255737,
                -0.6860000491142273
            ],
            "type" : "VEC3"
        },
        {
            "bufferView" : 8,
            "componentType" : 5126,
            "count" : 12531,
            "type" : "VEC3"
        },
        {
            "bufferView" : 9,
            "componentType" : 5126,
            "count" : 12531,
            "type" : "VEC2"
        },
        {
            "bufferView" : 10,
            "componentType" : 5123,
            "count" : 22704,
            "type" : "SCALAR"
        },
        {
            "bufferView" : 11,
            "componentType" : 5126,
            "count" : 220,
            "max" : [
                9.166666666666666
            ],
            "min" : [
                0.041666666666666664
            ],
            "type" : "SCALAR"
        },
        {
            "bufferView" : 12,
            "componentType" : 5126,
            "count" : 220,
            "type" : "VEC4"
        },
        {
            "bufferView" : 13,
            "componentType" : 5126,
            "count" : 220,
            "type" : "VEC4"
        },
        {
            "bufferView" : 14,
            "componentType" : 5126,
            "count" : 220,
            "type" : "VEC4"
        }
    ],
    "bufferViews" : [
        {
            "buffer" : 0,
            "byteLength" : 5808,
            "byteOffset" : 0
        },
        {
            "buffer" : 0,
            "byteLength" : 5808,
            "byteOffset" : 5808
        },
        {
            "buffer" : 0,
            "byteLength" : 3872,
            "byteOffset" : 11616
        },
        {
            "buffer" : 0,
            "byteLength" : 4608,
            "byteOffset" : 15488
        },
        {
            "buffer" : 0,
            "byteLength" : 5808,
            "byteOffset" : 20096
        },
        {
            "buffer" : 0,
            "byteLength" : 5808,
            "byteOffset" : 25904
        },
        {
            "buffer" : 0,
            "byteLength" : 3872,
            "byteOffset" : 31712
        },
        {
            "buffer" : 0,
            "byteLength" : 150372,
            "byteOffset" : 35584
        },
        {
            "buffer" : 0,
            "byteLength" : 150372,
            "byteOffset" : 185956
        },
        {
            "buffer" : 0,
            "byteLength" : 100248,
            "byteOffset" : 336328
        },
        {
            "buffer" : 0,
            "byteLength" : 45408,
            "byteOffset" : 436576
        },
        {
            "buffer" : 0,
            "byteLength" : 880,
            "byteOffset" : 481984
        },
        {
            "buffer" : 0,
            "byteLength" : 3520,
            "byteOffset" : 482864
        },
        {
            "buffer" : 0,
            "byteLength" : 3520,
            "byteOffset" : 486384
        },
        {
            "buffer" : 0,
            "byteLength" : 3520,
            "byteOffset" : 489904
        }
    ],
    "buffers" : [
        {
            "byteLength" : 493424,
            "uri" : "data:application/octet-stream;base64,"
        }
    ]
}
